<svg width="15" height="15" viewBox="0 0 15 15" fill="none" xmlns="http://www.w3.org/2000/svg"><path fill-rule="evenodd" clip-rule="evenodd" d="M7.05525 4.28774L5.01797 3.03774C4.96505 3.00698 4.91864 2.96545 4.88151 2.9156C4.84439 2.86577 4.81732 2.80865 4.80191 2.74768C4.7865 2.6867 4.78308 2.62312 4.79185 2.56073C4.80062 2.49835 4.82139 2.43845 4.85294 2.38462C4.88449 2.33078 4.92615 2.28412 4.97544 2.24741C5.02473 2.21071 5.08063 2.18473 5.1398 2.17101C5.19897 2.1573 5.26019 2.15614 5.3198 2.16761C5.37941 2.17907 5.43618 2.20292 5.48672 2.23774L7.50594 3.48774L7.05525 4.28774Z" fill="white"/><path fill-rule="evenodd" clip-rule="evenodd" d="M7.21151 6.44364L3.10696 3.97487C3.05566 3.94409 3.01069 3.90311 2.97463 3.85425C2.93856 3.8054 2.9121 3.74964 2.89675 3.69015C2.86576 3.57001 2.88193 3.44199 2.94169 3.33425C3.00146 3.2265 3.09994 3.14786 3.21546 3.11563C3.33098 3.0834 3.45408 3.10021 3.55768 3.16237L7.21151 5.36237V6.44364Z" fill="white"/><path fill-rule="evenodd" clip-rule="evenodd" d="M12.0673 3.3306C12.0062 3.22865 11.9102 3.15457 11.7987 3.12325C11.6872 3.09194 11.5685 3.10573 11.4663 3.16184L7.95069 5.24934V4.28059L9.98798 3.0306C10.0862 2.96718 10.1569 2.86645 10.1849 2.74977C10.213 2.63309 10.1962 2.50964 10.1382 2.40559C10.0762 2.30461 9.97938 2.23215 9.86763 2.20309C9.75588 2.17402 9.63761 2.19058 9.53723 2.24934L7.28965 3.61185C7.2184 3.65535 7.15933 3.71744 7.11819 3.79198C7.07712 3.86652 7.05542 3.95092 7.05525 4.03684V13.1244C7.04792 13.19 7.05404 13.2565 7.07319 13.3196C7.09235 13.3827 7.12413 13.4407 7.16642 13.4901C7.20871 13.5395 7.26052 13.579 7.31856 13.6061C7.37654 13.6332 7.43942 13.6471 7.503 13.6471C7.56658 13.6471 7.6294 13.6332 7.68744 13.6061C7.74542 13.579 7.79729 13.5395 7.83958 13.4901C7.88186 13.4407 7.9136 13.3827 7.93275 13.3196C7.9519 13.2565 7.95802 13.19 7.95069 13.1244V6.33687L11.899 3.97434C12.0028 3.91157 12.0786 3.80883 12.1101 3.68836C12.1416 3.56788 12.1262 3.43936 12.0673 3.3306Z" fill="white"/><path d="M7.50627 2.45625C7.78504 2.45625 8.01108 2.2212 8.01108 1.93125C8.01108 1.6413 7.78504 1.40625 7.50627 1.40625C7.22745 1.40625 7.00146 1.6413 7.00146 1.93125C7.00146 2.2212 7.22745 2.45625 7.50627 2.45625Z" fill="white"/><path d="M5.98584 6.76224C6.0549 6.80148 6.11259 6.85932 6.15275 6.9297C6.1929 7.00008 6.21419 7.08042 6.21425 7.16226V9.71226C6.21459 9.79506 6.19359 9.87642 6.15344 9.94788C6.11329 10.0193 6.05542 10.0783 5.98584 10.1185C5.91782 10.158 5.84144 10.1795 5.76351 10.181C5.68377 10.1788 5.6056 10.1574 5.53514 10.1185L2.93899 8.56224C2.83539 8.50008 2.75978 8.39766 2.72878 8.27754C2.69779 8.15742 2.71396 8.02938 2.77373 7.92162C2.8335 7.81392 2.93197 7.73526 3.04749 7.70304C3.16301 7.67076 3.28611 7.68762 3.38971 7.74978L5.31279 8.89974V7.43724L4.44139 6.91854C4.34225 6.85602 4.27007 6.75624 4.23985 6.63984C4.20964 6.52344 4.22371 6.39942 4.27913 6.29352C4.33815 6.18918 4.43414 6.1131 4.54649 6.08154C4.65885 6.04998 4.77861 6.06552 4.8801 6.12474L5.98584 6.76224Z" fill="white"/><path d="M3.44963 6.31295C3.72843 6.31295 3.95444 6.07787 3.95444 5.78794C3.95444 5.498 3.72843 5.26294 3.44963 5.26294C3.17083 5.26294 2.94482 5.498 2.94482 5.78794C2.94482 6.07787 3.17083 6.31295 3.44963 6.31295Z" fill="white"/><path d="M10.1081 6.10608C10.2095 6.0468 10.3293 6.03132 10.4417 6.06288C10.554 6.09444 10.65 6.17052 10.709 6.2748C10.7645 6.3807 10.7785 6.50472 10.7483 6.62112C10.7181 6.73752 10.6459 6.83736 10.5468 6.89982L9.67537 7.41858V8.88108L11.5984 7.73106C11.6498 7.70028 11.7064 7.6803 11.7651 7.67232C11.8238 7.66428 11.8835 7.66836 11.9407 7.68432C11.9979 7.70028 12.0515 7.72782 12.0984 7.76532C12.1455 7.80282 12.1849 7.84962 12.2145 7.90296C12.2441 7.9563 12.2632 8.01516 12.2709 8.07624C12.2787 8.13732 12.2748 8.19936 12.2594 8.25888C12.2441 8.31834 12.2176 8.37408 12.1815 8.42298C12.1455 8.47182 12.1005 8.5128 12.0492 8.54358L9.45303 10.0998C9.38258 10.1387 9.30441 10.1601 9.22468 10.1623C9.14674 10.1608 9.07035 10.1393 9.00228 10.0998C8.93276 10.0595 8.87489 10.0006 8.83474 9.92916C8.79458 9.8577 8.77358 9.77634 8.77393 9.6936V7.16232C8.77399 7.08048 8.79522 7.00014 8.83543 6.92976C8.87558 6.85938 8.93322 6.80154 9.00228 6.7623L10.1081 6.10608Z" fill="white"/><path d="M11.5502 6.31295C11.829 6.31295 12.055 6.07787 12.055 5.78794C12.055 5.498 11.829 5.26294 11.5502 5.26294C11.2714 5.26294 11.0454 5.498 11.0454 5.78794C11.0454 6.07787 11.2714 6.31295 11.5502 6.31295Z" fill="white"/></svg>
