<?xml version="1.0" encoding="UTF-8"?>
<svg viewBox="0 0 15 15" xmlns="http://www.w3.org/2000/svg">
<path d="m7.0552 4.2877-2.0373-1.25c-0.05292-0.03076-0.09933-0.07229-0.13646-0.12214-0.03712-0.04983-0.06419-0.10695-0.0796-0.16792-0.01541-0.06098-0.01883-0.12456-0.01006-0.18695 0.00877-0.06238 0.02954-0.12228 0.06109-0.17611 0.03155-0.05384 0.07321-0.1005 0.1225-0.13721 0.04929-0.0367 0.10519-0.06268 0.16436-0.0764 0.05917-0.01371 0.12039-0.01487 0.18-0.0034 0.05961 0.01146 0.11638 0.03531 0.16692 0.07013l2.0192 1.25-0.45069 0.8z" clip-rule="evenodd" fill="#000" fill-rule="evenodd"/>
<path d="m7.2115 6.4436-4.1046-2.4688c-0.0513-0.03078-0.09627-0.07176-0.13233-0.12062-0.03607-0.04885-0.06253-0.10461-0.07788-0.1641-0.03099-0.12014-0.01482-0.24816 0.04494-0.3559 0.05977-0.10775 0.15825-0.18639 0.27377-0.21862s0.23862-0.01542 0.34222 0.04674l3.6538 2.2v1.0813z" clip-rule="evenodd" fill="#000" fill-rule="evenodd"/>
<path d="m12.067 3.3306c-0.0611-0.10195-0.1571-0.17603-0.2686-0.20735-0.1115-0.03131-0.2302-0.01752-0.3324 0.03859l-3.5156 2.0875v-0.96875l2.0373-1.25c0.09822-0.06342 0.16892-0.16415 0.19692-0.28083 0.0281-0.11668 0.0113-0.24013-0.0467-0.34418-0.062-0.10098-0.15882-0.17344-0.27057-0.2025-0.11175-0.02907-0.23002-0.01251-0.3304 0.04625l-2.2476 1.3625c-0.07125 0.0435-0.13032 0.10559-0.17146 0.18013-0.04107 0.07454-0.06277 0.15894-0.06294 0.24486v9.0876c-0.00733 0.0656-0.00121 0.1321 0.01794 0.1952 0.01916 0.0631 0.05094 0.1211 0.09323 0.1705s0.0941 0.0889 0.15214 0.116c0.05798 0.0271 0.12086 0.041 0.18444 0.041s0.1264-0.0139 0.18444-0.041c0.05798-0.0271 0.10985-0.0666 0.15214-0.116 0.04228-0.0494 0.07402-0.1074 0.09317-0.1705s0.02527-0.1296 0.01794-0.1952v-6.7875l3.9483-2.3625c0.1038-0.06277 0.1796-0.16551 0.2111-0.28598 0.0315-0.12048 0.0161-0.249-0.0428-0.35776z" clip-rule="evenodd" fill="#000" fill-rule="evenodd"/>
<path d="m7.5063 2.4562c0.27877 0 0.50481-0.23505 0.50481-0.525s-0.22604-0.525-0.50481-0.525c-0.27882 0-0.50481 0.23505-0.50481 0.525s0.22599 0.525 0.50481 0.525z" fill="#000"/>
<path d="m5.9858 6.7622c0.06906 0.03924 0.12675 0.09708 0.16691 0.16746 0.04015 0.07038 0.06144 0.15072 0.0615 0.23256v2.55c3.4e-4 0.0828-0.02066 0.16416-0.06081 0.23562-0.04015 0.07142-0.09802 0.13042-0.1676 0.17062-0.06802 0.0395-0.1444 0.061-0.22233 0.0625-0.07974-0.0022-0.15791-0.0236-0.22837-0.0625l-2.5962-1.5563c-0.1036-0.06216-0.17921-0.16458-0.21021-0.2847-0.03099-0.12012-0.01482-0.24816 0.04495-0.35592 0.05977-0.1077 0.15824-0.18636 0.27376-0.21858 0.11552-0.03228 0.23862-0.01542 0.34222 0.04674l1.9231 1.15v-1.4625l-0.8714-0.5187c-0.09914-0.06252-0.17132-0.1623-0.20154-0.2787-0.03021-0.1164-0.01614-0.24042 0.03928-0.34632 0.05902-0.10434 0.15501-0.18042 0.26736-0.21198 0.11236-0.03156 0.23212-0.01602 0.33361 0.0432l1.1057 0.6375z" fill="#000"/>
<path d="m3.4496 6.313c0.2788 0 0.50481-0.23508 0.50481-0.52501 0-0.28994-0.22601-0.525-0.50481-0.525s-0.50481 0.23506-0.50481 0.525c0 0.28993 0.22601 0.52501 0.50481 0.52501z" fill="#000"/>
<path d="m10.108 6.1061c0.1014-0.05928 0.2212-0.07476 0.3336-0.0432 0.1123 0.03156 0.2083 0.10764 0.2673 0.21192 0.0555 0.1059 0.0695 0.22992 0.0393 0.34632s-0.1024 0.21624-0.2015 0.2787l-0.87143 0.51876v1.4625l1.923-1.15c0.0514-0.03078 0.108-0.05076 0.1667-0.05874 0.0587-0.00804 0.1184-0.00396 0.1756 0.012s0.1108 0.0435 0.1577 0.081c0.0471 0.0375 0.0865 0.0843 0.1161 0.13764s0.0487 0.1122 0.0564 0.17328c0.0078 0.06108 0.0039 0.12312-0.0115 0.18264-0.0153 0.05946-0.0418 0.1152-0.0779 0.1641-0.036 0.04884-0.081 0.08982-0.1323 0.1206l-2.5962 1.5562c-0.07045 0.0389-0.14862 0.0603-0.22835 0.0625-0.07794-0.0015-0.15433-0.023-0.2224-0.0625-0.06952-0.0403-0.12739-0.0992-0.16754-0.17064-0.04016-0.07146-0.06116-0.15282-0.06081-0.23556v-2.5313c6e-5 -0.08184 0.02129-0.16218 0.0615-0.23256 0.04015-0.07038 0.09779-0.12822 0.16685-0.16746l1.1058-0.65622z" fill="#000"/>
<path d="m11.55 6.313c0.2788 0 0.5048-0.23508 0.5048-0.52501 0-0.28994-0.226-0.525-0.5048-0.525s-0.5048 0.23506-0.5048 0.525c0 0.28993 0.226 0.52501 0.5048 0.52501z" fill="#000"/>
</svg>

